<svg xmlns="http://www.w3.org/2000/svg" xmlns:xlink="http://www.w3.org/1999/xlink" width="2000" zoomAndPan="magnify" viewBox="0 0 1500 1499.999933" height="2000" preserveAspectRatio="xMidYMid meet" version="1.0"><defs><clipPath id="0e741c8107"><path d="M 450 431.167969 L 871 431.167969 L 871 743.917969 L 450 743.917969 Z M 450 431.167969 " clip-rule="nonzero"/></clipPath><clipPath id="684c8d9913"><path d="M 450 506.167969 L 450 669 C 450 710.421875 483.578125 744 525 744 L 975 744 C 1016.421875 744 1050 710.421875 1050 669 L 1050 506.167969 C 1050 464.746094 1016.421875 431.167969 975 431.167969 L 525 431.167969 C 483.578125 431.167969 450 464.746094 450 506.167969 Z M 450 506.167969 " clip-rule="nonzero"/></clipPath><clipPath id="8017b0688b"><path d="M 766 431.167969 L 1050 431.167969 L 1050 743.917969 L 766 743.917969 Z M 766 431.167969 " clip-rule="nonzero"/></clipPath><clipPath id="1c672ee835"><path d="M 450 506.167969 L 450 669 C 450 710.421875 483.578125 744 525 744 L 975 744 C 1016.421875 744 1050 710.421875 1050 669 L 1050 506.167969 C 1050 464.746094 1016.421875 431.167969 975 431.167969 L 525 431.167969 C 483.578125 431.167969 450 464.746094 450 506.167969 Z M 450 506.167969 " clip-rule="nonzero"/></clipPath><clipPath id="073a45b452"><path d="M 450 756 L 1050 756 L 1050 1068.75 L 450 1068.75 Z M 450 756 " clip-rule="nonzero"/></clipPath><clipPath id="fc2749081c"><path d="M 450 831 L 450 993.832031 C 450 1035.253906 483.578125 1068.832031 525 1068.832031 L 975 1068.832031 C 1016.421875 1068.832031 1050 1035.253906 1050 993.832031 L 1050 831 C 1050 789.578125 1016.421875 756 975 756 L 525 756 C 483.578125 756 450 789.578125 450 831 Z M 450 831 " clip-rule="nonzero"/></clipPath><clipPath id="494240e642"><path d="M 0 0.0820312 L 421 0.0820312 L 421 312.75 L 0 312.75 Z M 0 0.0820312 " clip-rule="nonzero"/></clipPath><clipPath id="76772bc6bb"><path d="M 0 75 L 0 237.832031 C 0 279.253906 33.578125 312.832031 75 312.832031 L 525 312.832031 C 566.421875 312.832031 600 279.253906 600 237.832031 L 600 75 C 600 33.578125 566.421875 0 525 0 L 75 0 C 33.578125 0 0 33.578125 0 75 Z M 0 75 " clip-rule="nonzero"/></clipPath><clipPath id="d11e04c8ba"><path d="M 316 0.0820312 L 600 0.0820312 L 600 312.75 L 316 312.75 Z M 316 0.0820312 " clip-rule="nonzero"/></clipPath><clipPath id="21c804a37a"><path d="M 0 75 L 0 237.832031 C 0 279.253906 33.578125 312.832031 75 312.832031 L 525 312.832031 C 566.421875 312.832031 600 279.253906 600 237.832031 L 600 75 C 600 33.578125 566.421875 0 525 0 L 75 0 C 33.578125 0 0 33.578125 0 75 Z M 0 75 " clip-rule="nonzero"/></clipPath><clipPath id="00250cb73d"><rect x="0" width="600" y="0" height="313"/></clipPath></defs><g clip-path="url(#0e741c8107)"><g clip-path="url(#684c8d9913)"><path fill="#000000" d="M 667.902344 431.167969 L 450.097656 744.011719 L 676.375 744.011719 L 742.164062 649.511719 L 720.324219 614.457031 L 656.550781 706.054688 L 522.773438 706.054688 L 666.714844 499.300781 L 824.527344 744.011719 L 870.453125 744.011719 Z M 667.902344 431.167969 " fill-opacity="1" fill-rule="nonzero"/></g></g><g clip-path="url(#8017b0688b)"><g clip-path="url(#1c672ee835)"><path fill="#000000" d="M 847.925781 431.167969 L 766.5 548.125 L 788.738281 582.613281 L 846.742188 499.300781 L 1004.695312 744.011719 L 1049.921875 744.011719 Z M 847.925781 431.167969 " fill-opacity="1" fill-rule="nonzero"/></g></g><g clip-path="url(#073a45b452)"><g clip-path="url(#fc2749081c)"><g transform="matrix(1, 0, 0, 1, 450, 756)"><g clip-path="url(#00250cb73d)"><g clip-path="url(#494240e642)"><g clip-path="url(#76772bc6bb)"><path fill="#000000" d="M 217.902344 312.832031 L 0.0976562 -0.015625 L 226.375 -0.015625 L 292.164062 94.488281 L 270.324219 129.542969 L 206.550781 37.945312 L 72.773438 37.945312 L 216.714844 244.699219 L 374.527344 -0.015625 L 420.453125 -0.015625 Z M 217.902344 312.832031 " fill-opacity="1" fill-rule="nonzero"/></g></g><g clip-path="url(#d11e04c8ba)"><g clip-path="url(#21c804a37a)"><path fill="#000000" d="M 397.925781 312.832031 L 316.5 195.875 L 338.738281 161.386719 L 396.742188 244.699219 L 554.695312 -0.015625 L 599.921875 -0.015625 Z M 397.925781 312.832031 " fill-opacity="1" fill-rule="nonzero"/></g></g></g></g></g></g></svg>